HIERARCHY
ROOT Hips
{
	OFFSET -0.001795 -0.223333 0.028219
	CHANNELS 6 Xposition Yposition Zposition Zrotation Yrotation Xrotation 
	JOINT LeftUpLeg
	{
		OFFSET 0.069520 -0.091406 -0.006815
		CHANNELS 3 Zrotation Yrotation Xrotation
		JOINT LeftLeg
		{
			OFFSET 0.034277 -0.375199 -0.004496
			CHANNELS 3 Zrotation Yrotation Xrotation
			JOINT LeftFoot
			{
				OFFSET -0.013596 -0.397961 -0.043693
				CHANNELS 3 Zrotation Yrotation Xrotation
				JOINT LeftToe
				{
					OFFSET 0.026358 -0.055791 0.119288
					CHANNELS 3 Zrotation Yrotation Xrotation
					End Site
					{
						OFFSET 0.000000 0.000000 0.000000
					}
				}
			}
		}
	}
	JOINT RightUpLeg
	{
		OFFSET -0.067670 -0.090522 -0.004320
		CHANNELS 3 Zrotation Yrotation Xrotation
		JOINT RightLeg
		{
			OFFSET -0.038290 -0.382569 -0.008850
			CHANNELS 3 Zrotation Yrotation Xrotation
			JOINT RightFoot
			{
				OFFSET 0.015774 -0.398415 -0.042312
				CHANNELS 3 Zrotation Yrotation Xrotation
				JOINT RightToe
				{
					OFFSET -0.025372 -0.048144 0.123348
					CHANNELS 3 Zrotation Yrotation Xrotation
					End Site
					{
						OFFSET 0.000000 0.000000 0.000000
					}
				}
			}
		}
	}
	JOINT Spine
	{
		OFFSET -0.002533 0.108963 -0.026696
		CHANNELS 3 Zrotation Yrotation Xrotation
		JOINT Spine1
		{
			OFFSET 0.005487 0.135180 0.001092
			CHANNELS 3 Zrotation Yrotation Xrotation
			JOINT Spine2
			{
				OFFSET 0.001457 0.052922 0.025425
				CHANNELS 3 Zrotation Yrotation Xrotation
				JOINT Neck
				{
					OFFSET -0.002778 0.213870 -0.042857
					CHANNELS 3 Zrotation Yrotation Xrotation
					JOINT Head
					{
						OFFSET 0.005152 0.064970 0.051349
						CHANNELS 3 Zrotation Yrotation Xrotation
						End Site
						{
							OFFSET 0.000000 0.000000 0.000000
						}
					}
				}
				JOINT LeftShoulder
				{
					OFFSET 0.078845 0.121749 -0.034090
					CHANNELS 3 Zrotation Yrotation Xrotation
					JOINT LeftArm
					{
						OFFSET 0.090977 0.030469 -0.008868
						CHANNELS 3 Zrotation Yrotation Xrotation
						JOINT LeftForeArm
						{
							OFFSET 0.259612 -0.012772 -0.027456
							CHANNELS 3 Zrotation Yrotation Xrotation
							JOINT LeftHand
							{
								OFFSET 0.249234 0.008986 -0.001171
								CHANNELS 3 Zrotation Yrotation Xrotation
								End Site
								{
									OFFSET 0.000000 0.000000 0.000000
								}
							}
						}
					}
				}
				JOINT RightShoulder
				{
					OFFSET -0.081759 0.118833 -0.038615
					CHANNELS 3 Zrotation Yrotation Xrotation
					JOINT RightArm
					{
						OFFSET -0.096012 0.032551 -0.009143
						CHANNELS 3 Zrotation Yrotation Xrotation
						JOINT RightForeArm
						{
							OFFSET -0.253742 -0.013329 -0.021401
							CHANNELS 3 Zrotation Yrotation Xrotation
							JOINT RightHand
							{
								OFFSET -0.255298 0.007772 -0.005559
								CHANNELS 3 Zrotation Yrotation Xrotation
								End Site
								{
									OFFSET 0.000000 0.000000 0.000000
								}
							}
						}
					}
				}
			}
		}
	}
}
MOTION
Frames: 16
Frame Time: 0.050000
0.000000 0.929068 0.000000 0.636238 -8.200738 -3.582621 4.053721 -0.692422 -15.953512 4.673122 -1.348475 12.529756 7.888033 16.573943 23.541778 0.000000 0.000000 0.000000 2.493425 -0.449349 3.487447 2.629187 -0.175377 2.779575 -2.498081 1.507182 -11.597895 0.000000 0.000000 0.000000 3.788349 -0.436831 6.582503 -2.160812 0.972587 -3.328680 3.490420 4.234927 11.296849 1.010375 0.685948 -19.980569 0.000000 0.000000 0.000000 -24.439194 -7.662596 2.743991 -50.695702 -10.103211 -2.614644 -10.230383 -43.900631 6.278317 0.000000 0.000000 0.000000 17.959084 11.709172 4.468900 47.124308 14.875851 0.494093 9.499407 42.847984 5.128327 0.000000 0.000000 0.000000 
-0.000518 0.928396 0.012044 -0.235983 -7.663265 -2.751573 5.412455 -0.514342 -16.484045 3.722675 -1.171607 13.261726 7.814948 16.545976 22.100447 0.000000 0.000000 0.000000 3.133690 -0.585426 4.293212 3.095669 -0.255650 1.371611 -2.494487 1.275672 -11.519777 0.000000 0.000000 0.000000 4.558644 -0.349278 4.645589 -2.866776 1.326674 -2.195142 3.871992 4.599228 11.304152 0.954246 0.839792 -20.510067 0.000000 0.000000 0.000000 -23.197515 -7.358648 2.349149 -51.758362 -10.288616 -2.492240 -10.546485 -43.893549 6.334518 0.000000 0.000000 0.000000 16.873030 10.368341 3.931004 48.232786 15.755864 0.834638 13.912638 44.648783 7.282771 0.000000 0.000000 0.000000 
-0.000910 0.929550 0.024051 0.317581 -6.710554 -2.637043 3.813676 -0.737066 -14.915351 5.129590 -1.399084 11.247725 7.497043 16.234933 21.412778 0.000000 0.000000 0.000000 2.575611 -0.627836 4.966629 3.010915 -0.255770 1.268384 -2.752977 0.430279 -11.865675 0.000000 0.000000 0.000000 4.365602 -0.332978 4.460270 -3.174252 1.435507 -3.799403 3.336842 4.435517 12.715018 0.757173 1.000527 -20.599049 0.000000 0.000000 0.000000 -22.249822 -7.206248 2.211272 -52.228259 -9.588353 -2.917981 -10.261380 -44.828216 6.376843 0.000000 0.000000 0.000000 17.216674 10.198941 3.995830 47.555529 16.898424 1.090077 14.322550 45.619345 7.744753 0.000000 0.000000 0.000000 
-0.001389 0.929983 0.036108 0.323736 -6.535258 -2.395675 4.279174 -0.658480 -14.425828 4.163810 -1.191214 11.282290 7.598057 16.371596 20.507580 0.000000 0.000000 0.000000 2.753731 -0.669000 5.200924 2.565638 -0.200380 1.811120 -2.930804 0.208472 -12.405885 0.000000 0.000000 0.000000 3.626235 -0.210699 2.985895 -3.363553 1.536562 -3.181581 3.707632 4.624355 12.815018 0.504117 1.188085 -20.779571 0.000000 0.000000 0.000000 -21.986699 -6.188631 1.564090 -52.931979 -9.665683 -2.894830 -10.243298 -46.196788 6.581047 0.000000 0.000000 0.000000 17.091344 10.557543 4.240841 47.082796 17.705015 1.364397 17.257425 47.950261 9.556188 0.000000 0.000000 0.000000 
-0.001769 0.930147 0.047584 0.408775 -6.134106 -2.266764 4.002743 -0.695468 -14.151117 4.292816 -1.250436 11.742911 7.543965 16.327804 19.706011 0.000000 0.000000 0.000000 2.472551 -0.692034 5.567954 2.851281 -0.224867 2.265651 -3.106852 -0.126559 -12.906613 0.000000 0.000000 0.000000 3.086021 -0.191691 2.856690 -3.836350 1.741576 -3.616342 3.903789 4.775740 12.994629 0.680696 1.153980 -21.201555 0.000000 0.000000 0.000000 -20.781379 -6.360193 1.612353 -53.929725 -9.358180 -3.069524 -9.146996 -48.731777 6.473640 0.000000 0.000000 0.000000 17.351212 10.369859 4.238498 46.445300 18.775645 1.701927 18.633664 50.612509 10.914773 0.000000 0.000000 0.000000 
-0.002175 0.930166 0.058445 0.485214 -5.564594 -1.890846 3.801486 -0.726345 -13.882660 4.328843 -1.258556 11.614490 7.406853 16.187940 18.866683 0.000000 0.000000 0.000000 2.271214 -0.726861 5.975495 3.088368 -0.258250 2.092850 -3.239274 -0.576426 -13.167314 0.000000 0.000000 0.000000 2.369458 -0.145155 2.304426 -3.868793 1.750853 -3.969151 3.860417 4.855565 13.416673 0.606156 1.276705 -21.671993 0.000000 0.000000 0.000000 -20.632208 -5.806829 1.211704 -53.547105 -9.575187 -2.972454 -10.856595 -52.867511 7.932219 0.000000 0.000000 0.000000 17.461869 11.120409 4.759459 46.091750 20.054232 2.101671 18.999206 52.630832 11.733770 0.000000 0.000000 0.000000 
-0.002157 0.929562 0.068827 0.411734 -4.743270 -1.774641 3.842354 -0.735405 -13.800257 4.159540 -1.267077 12.184325 7.155638 15.897295 17.757530 0.000000 0.000000 0.000000 2.059022 -0.729190 6.094192 3.704849 -0.324965 2.942011 -3.503352 -1.327595 -13.797873 0.000000 0.000000 0.000000 1.900446 -0.132105 2.232180 -3.913293 1.785500 -3.730423 3.626349 5.182885 13.373987 1.072044 1.128233 -21.777888 0.000000 0.000000 0.000000 -20.148603 -6.307964 1.267996 -52.824127 -10.435322 -2.509651 -12.978595 -57.914580 9.813972 0.000000 0.000000 0.000000 18.170296 11.963143 5.478092 45.535921 21.520643 2.549576 17.241043 54.713728 11.565990 0.000000 0.000000 0.000000 
-0.001433 0.929213 0.078966 0.222207 -4.131091 -1.673716 3.749663 -0.757875 -13.752869 4.409938 -1.378879 12.904614 6.993825 15.697238 16.821718 0.000000 0.000000 0.000000 2.127748 -0.767616 6.350280 3.917557 -0.352144 3.524018 -3.684456 -1.900631 -14.231469 0.000000 0.000000 0.000000 1.494695 -0.108400 1.940042 -3.893475 1.793383 -3.338260 3.395228 5.397599 13.265780 1.791079 0.781334 -21.591917 0.000000 0.000000 0.000000 -19.437680 -6.775957 1.386548 -52.284350 -11.821531 -1.846602 -15.298136 -63.327274 12.207375 0.000000 0.000000 0.000000 18.113108 13.402265 6.413501 45.727049 23.036663 3.137149 13.480730 56.611335 10.173117 0.000000 0.000000 0.000000 
0.000411 0.929036 0.089699 -0.032218 -3.654166 -1.528902 3.658927 -0.780810 -13.775786 4.676457 -1.507444 13.783175 6.912582 15.585887 15.914258 0.000000 0.000000 0.000000 2.048158 -0.764115 6.333929 4.358326 -0.408415 4.547665 -3.843417 -2.353651 -14.688969 0.000000 0.000000 0.000000 1.285102 -0.092761 1.701615 -4.012745 1.854272 -3.212495 3.248320 6.043265 13.286937 2.788543 0.327808 -21.511478 0.000000 0.000000 0.000000 -18.710871 -8.115625 1.882349 -51.911233 -13.473794 -1.076201 -17.286330 -68.301094 14.472497 0.000000 0.000000 0.000000 18.532993 14.576225 7.366420 45.487302 24.418967 3.577508 10.764756 58.527715 9.310273 0.000000 0.000000 0.000000 
0.003663 0.928930 0.101498 -0.108060 -3.170685 -1.257243 3.196485 -0.832182 -13.498987 5.107322 -1.634331 13.998097 6.874186 15.523010 14.941536 0.000000 0.000000 0.000000 1.993340 -0.763185 6.317581 4.262061 -0.396135 5.404529 -4.019319 -2.925641 -15.099508 0.000000 0.000000 0.000000 0.862844 -0.064217 1.247076 -4.030153 1.871712 -2.935267 3.275068 6.103908 13.248983 3.471551 -0.024421 -21.489214 0.000000 0.000000 0.000000 -17.936277 -8.580972 2.077833 -51.761681 -15.054887 -0.380777 -19.316169 -73.075012 17.192264 0.000000 0.000000 0.000000 17.847697 15.908037 8.095675 46.086510 25.936503 4.282439 7.946518 60.608837 8.206361 0.000000 0.000000 0.000000 
0.008177 0.929393 0.114589 -0.220146 -3.082712 -1.264102 2.788976 -0.838835 -12.803465 5.380238 -1.724834 14.309996 7.025898 15.705649 14.096286 0.000000 0.000000 0.000000 1.605445 -0.748725 6.464658 4.501877 -0.426875 6.612225 -4.097044 -3.049300 -15.415710 0.000000 0.000000 0.000000 0.756797 -0.055419 1.093515 -4.304052 2.000012 -2.802885 3.211359 6.324014 13.119566 3.705390 -0.133641 -21.362417 0.000000 0.000000 0.000000 -17.470882 -9.277488 2.384801 -51.753289 -16.446623 0.240829 -22.021150 -76.619355 20.360917 0.000000 0.000000 0.000000 17.783161 16.871477 8.687436 46.425915 27.139930 4.824941 7.452518 62.711100 8.376540 0.000000 0.000000 0.000000 
0.013663 0.929733 0.128886 -0.080019 -3.354277 -1.021242 2.199418 -0.837428 -11.832541 5.404742 -1.693199 13.904016 7.395637 16.192811 13.248453 0.000000 0.000000 0.000000 1.002525 -0.717129 6.655806 4.379041 -0.397650 7.337217 -4.121566 -2.869004 -15.653836 0.000000 0.000000 0.000000 0.338482 -0.017480 0.351292 -4.472438 2.084420 -2.441285 3.298257 6.110120 12.701578 3.542530 -0.145666 -20.805071 0.000000 0.000000 0.000000 -17.550163 -9.553115 2.609969 -51.144896 -17.005092 0.499943 -25.203641 -79.020471 24.014850 0.000000 0.000000 0.000000 17.365406 17.808016 9.015856 47.653931 27.815652 5.407835 7.168441 64.612107 8.466979 0.000000 0.000000 0.000000 
0.019596 0.930751 0.143513 -0.143231 -3.463118 -0.845316 1.666999 -0.806439 -10.646881 5.646269 -1.696511 13.233049 7.629236 16.512493 12.518231 0.000000 0.000000 0.000000 0.587429 -0.694676 6.791969 4.305161 -0.375738 8.289783 -4.124441 -2.846679 -15.650798 0.000000 0.000000 0.000000 0.213159 0.016245 -0.406720 -4.513965 2.110881 -2.122785 3.178311 6.028683 12.251150 3.904552 -0.416098 -20.377944 0.000000 0.000000 0.000000 -17.127173 -10.090604 2.921022 -51.316411 -16.980500 0.525447 -30.276334 -79.841109 28.703285 0.000000 0.000000 0.000000 17.059617 18.162702 9.114604 48.303889 28.286754 5.790797 9.028018 66.195957 9.922069 0.000000 0.000000 0.000000 
0.025643 0.931416 0.157589 -0.169862 -3.826616 -0.639106 1.300531 -0.775311 -9.814436 5.495252 -1.645773 13.126829 7.990601 17.028188 11.901385 0.000000 0.000000 0.000000 -0.190320 -0.607715 6.621923 4.610468 -0.412785 9.316491 -4.031152 -2.518329 -15.420460 0.000000 0.000000 0.000000 0.024264 0.049497 -1.178965 -4.756851 2.224815 -1.999307 3.276485 5.837915 12.116695 4.011913 -0.544947 -20.246545 0.000000 0.000000 0.000000 -17.025097 -10.375913 3.172521 -51.046119 -16.439251 0.278298 -35.689598 -80.700132 34.018345 0.000000 0.000000 0.000000 16.795907 18.629020 9.209181 48.889297 27.879148 5.771723 12.995302 68.593609 13.014223 0.000000 0.000000 0.000000 
0.031365 0.931596 0.170385 -0.250461 -4.092413 -0.287980 1.007308 -0.770175 -9.444030 5.352855 -1.623696 13.371863 8.302942 17.490644 11.297421 0.000000 0.000000 0.000000 -0.730825 -0.520536 6.189548 4.673362 -0.410380 10.217679 -3.940649 -2.354799 -15.046338 0.000000 0.000000 0.000000 -0.037336 0.084839 -2.002612 -4.890092 2.287631 -1.866592 3.330216 5.832357 11.774481 4.047652 -0.615969 -19.940057 0.000000 0.000000 0.000000 -17.018359 -10.033562 3.026297 -51.234847 -15.451408 -0.115448 -43.691058 -80.111424 40.721105 0.000000 0.000000 0.000000 16.713648 18.344600 8.997917 48.913895 27.377337 5.597967 20.984703 70.027878 18.980943 0.000000 0.000000 0.000000 
0.036604 0.931481 0.181832 -0.145015 -4.424249 0.251765 0.588243 -0.808676 -9.519663 5.119104 -1.593229 13.862841 8.640162 18.003746 10.879671 0.000000 0.000000 0.000000 -1.797966 -0.362775 5.392222 5.241899 -0.502763 10.907580 -3.736484 -1.963019 -14.388153 0.000000 0.000000 0.000000 -0.350412 0.117496 -2.839025 -5.177595 2.412173 -1.972518 3.742289 5.937604 11.812350 3.989726 -0.613213 -19.818943 0.000000 0.000000 0.000000 -17.137985 -9.838473 2.962202 -51.240971 -14.405927 -0.568262 -46.671198 -79.842083 43.239996 0.000000 0.000000 0.000000 16.713749 17.981705 8.771684 48.981818 26.543000 5.255538 28.340017 71.292622 24.830700 0.000000 0.000000 0.000000 
